<?xml version="1.0" encoding="iso-8859-1"?>
<!-- Generator: Adobe Illustrator 19.0.0, SVG Export Plug-In . SVG Version: 6.00 Build 0)  -->
<svg version="1.1" id="Capa_1" xmlns="http://www.w3.org/2000/svg" xmlns:xlink="http://www.w3.org/1999/xlink" x="0px" y="0px"
	 viewBox="0 0 479.209 479.209" style="enable-background:new 0 0 479.209 479.209;" xml:space="preserve">
<g>
	<g>
		<g>
			<path d="M199.164,159.825c-22.17,62.409,10.451,130.974,72.861,153.144s130.974-10.451,153.144-72.86
				c19.392-54.589-3.013-115.236-53.236-144.107c2.764-7.699,4.169-15.82,4.152-24C376.178,32.33,344.093,0.094,304.422,0
				c-21.51-0.051-41.91,9.541-55.594,26.137c-0.976-0.24-1.896-0.592-2.904-0.8c-4.557-0.908-9.194-1.356-13.84-1.336
				c-39.694-0.067-71.927,32.056-71.994,71.75C160.045,122.754,175.137,147.503,199.164,159.825z M405.291,246.046
				c-2.306,4.657-4.959,9.135-7.935,13.395h0c-32.935,46.982-97.72,58.369-144.701,25.435
				c-46.982-32.935-58.369-97.72-25.435-144.701c15.592-22.242,39.276-37.493,65.976-42.485l3.752-0.576
				c2.344-0.352,4.728-0.608,7.128-0.8c0.912-0.072,1.824-0.08,2.736-0.128c1.48-0.072,2.968-0.152,4.456-0.16
				c0.8,0,1.6,0,2.464,0.048c2.165,0.032,4.32,0.133,6.464,0.304c1.056,0.088,2.12,0.16,3.2,0.272
				c2.64,0.288,5.264,0.656,7.856,1.144c1,0.184,1.984,0.44,2.976,0.656c1.92,0.416,3.84,0.88,5.736,1.416
				c0.984,0.272,1.968,0.56,2.944,0.864c2.728,0.856,5.44,1.776,8.112,2.872c2.448,0.96,4.888,2.072,7.264,3.2
				C409.716,132.272,430.762,194.614,405.291,246.046z M304.084,16.001c30.913,0.035,55.965,25.087,56,56
				c0.018,5.756-0.867,11.479-2.624,16.96l-0.504-0.2c-14.24-5.829-29.485-8.805-44.872-8.76c-3.12,0-6.224,0.136-9.288,0.376
				h-0.384c-0.104-0.48-0.28-0.928-0.392-1.4c-0.232-0.944-0.52-1.864-0.8-2.8c-0.616-2.144-1.32-4.248-2.128-6.312
				c-0.376-0.968-0.744-1.92-1.16-2.864c-0.992-2.24-2.104-4.408-3.304-6.52c-0.336-0.592-0.616-1.208-0.968-1.784
				c-1.557-2.552-3.273-5.005-5.136-7.344c-0.656-0.8-1.376-1.6-2.064-2.4c-1.32-1.528-2.68-3-4.128-4.408
				c-0.88-0.864-1.776-1.696-2.704-2.512c-1.472-1.296-3.008-2.504-4.584-3.68c-0.912-0.68-1.792-1.392-2.736-2.024
				c-2.363-1.591-4.821-3.036-7.36-4.328C275.384,21.732,289.443,15.984,304.084,16.001z M176.084,96.001
				c0.035-30.913,25.087-55.965,56-56c3.616-0.012,7.224,0.344,10.768,1.064c2.222,0.41,4.407,0.996,6.536,1.752
				c2.464,0.802,4.87,1.772,7.2,2.904c0.8,0.376,1.48,0.8,2.224,1.232c1.504,0.8,2.992,1.648,4.4,2.584
				c0.8,0.552,1.6,1.168,2.4,1.76c1.232,0.92,2.456,1.864,3.608,2.88c0.8,0.688,1.504,1.416,2.24,2.136
				c1.067,1.067,2.088,2.155,3.064,3.264c0.68,0.8,1.344,1.6,1.976,2.4c0.912,1.184,1.76,2.4,2.576,3.672
				c0.56,0.864,1.12,1.72,1.6,2.608c0.8,1.352,1.456,2.76,2.112,4.176c0.416,0.872,0.856,1.736,1.216,2.632
				c0.664,1.64,1.2,3.336,1.704,5.04c0.224,0.744,0.504,1.456,0.696,2.208c0,0.136,0.04,0.28,0.072,0.408
				c-0.96,0.216-1.896,0.504-2.848,0.736c-1.184,0.288-2.4,0.584-3.528,0.912c-1.768,0.488-3.52,1.048-5.264,1.6
				c-1.096,0.36-2.2,0.696-3.288,1.088c-1.896,0.688-3.76,1.456-5.6,2.232c-0.896,0.376-1.8,0.712-2.688,1.104
				c-2.728,1.224-5.424,2.528-8.072,3.952c-2.824,1.52-5.6,3.2-8.248,4.904c-0.912,0.592-1.784,1.248-2.68,1.864
				c-1.736,1.192-3.464,2.4-5.136,3.672c-1.016,0.8-1.984,1.6-2.976,2.4c-1.48,1.208-2.944,2.4-4.368,3.712
				c-1,0.904-1.96,1.84-2.928,2.776c-1.336,1.28-2.64,2.576-3.912,3.92c-0.939,1.003-1.861,2.019-2.768,3.048
				c-1.208,1.368-2.4,2.776-3.544,4.2c-0.848,1.064-1.696,2.128-2.512,3.2c-1.12,1.496-2.192,3.024-3.248,4.568
				c-0.736,1.096-1.488,2.184-2.2,3.304c-1.056,1.672-2.04,3.384-3.008,5.104c-0.6,1.056-1.224,2.088-1.784,3.16
				c-0.16,0.312-0.352,0.608-0.512,0.912C187.411,135.262,176.201,116.468,176.084,96.001L176.084,96.001z"/>
			<path d="M281.172,125.834C281.172,125.833,281.172,125.833,281.172,125.834c-2.092-3.892-6.942-5.351-10.834-3.259
				c-0.002,0.001-0.004,0.002-0.006,0.003c-17.446,9.433-31.203,24.472-39.048,42.688c-4.757,10.962-7.208,22.786-7.2,34.736
				c0.006,4.418,3.593,7.995,8.011,7.989c4.41-0.006,7.983-3.579,7.989-7.989c-0.016-9.77,1.974-19.439,5.848-28.408
				c6.43-14.911,17.705-27.215,32-34.92C281.82,134.575,283.271,129.722,281.172,125.834z"/>
			<path d="M243.404,221.601c-1.447-4.174-6.005-6.385-10.179-4.938c-4.005,1.389-6.231,5.659-5.077,9.738
				c2.011,6.351,4.74,12.452,8.136,18.184c2.253,3.802,7.162,5.057,10.964,2.804c3.802-2.253,5.057-7.162,2.804-10.964
				C247.279,231.753,245.048,226.78,243.404,221.601z"/>
			<path d="M314.484,192.089c-0.406,0.019-0.809,0.068-1.208,0.144c-0.391-0.107-0.789-0.184-1.192-0.232c-8.837,0-16-7.163-16-16
				s7.163-16,16-16s16,7.163,16,16c0,4.418,3.582,8,8,8s8-3.582,8-8c-0.055-14.547-9.914-27.227-24-30.864v-9.136
				c0-4.418-3.582-8-8-8s-8,3.582-8,8v9.136c-17.081,4.396-27.364,21.807-22.968,38.888c3.636,14.126,16.381,23.994,30.968,23.976
				c0.216,0,0.392-0.104,0.6-0.12s0.376,0.144,0.592,0.16c8.812,0.661,15.42,8.34,14.759,17.151
				c-0.661,8.812-8.34,15.42-17.151,14.759c-8.808-0.66-15.415-8.334-14.76-17.142c0.427-4.398-2.792-8.309-7.189-8.736
				c-4.398-0.427-8.309,2.792-8.736,7.189c-0.012,0.121-0.021,0.241-0.027,0.362c-1.169,15.435,8.914,29.481,23.912,33.312v9.064
				c0,4.418,3.582,8,8,8s8-3.582,8-8v-9.128c17.084-4.384,27.38-21.788,22.996-38.872
				C339.671,202.718,328.162,193.093,314.484,192.089z"/>
			<path d="M200.084,104.001c4.418,0,8-3.582,8-8c0-13.255,10.745-24,24-24c4.418,0,8-3.582,8-8s-3.582-8-8-8
				c-22.08,0.026-39.974,17.92-40,40C192.084,100.42,195.666,104.001,200.084,104.001z"/>
			<path d="M304.084,48.001c13.255,0,24,10.745,24,24c0,4.418,3.582,8,8,8s8-3.582,8-8c-0.026-22.08-17.92-39.974-40-40
				c-4.418,0-8,3.582-8,8S299.666,48.001,304.084,48.001z"/>
			<path d="M474.844,327.201L474.844,327.201c-8.912-15.212-28.397-20.432-43.72-11.712l-84.032,48.512
				c-1.632-13.262-11.224-24.168-24.168-27.48l-75.296-13.32c-10.771-2.455-21.148-6.397-30.832-11.712
				c-19.973-10.393-42.197-15.713-64.712-15.488c-22.131-0.316-44,4.816-63.68,14.944c-2.876,1.42-5.872,2.584-8.952,3.48
				c-12.637,3.815-25.776,5.703-38.976,5.6H8.084c-4.418,0-8,3.582-8,8v111.976c0,4.418,3.582,8,8,8H56.78
				c4.456,0,8.906,0.337,13.312,1.008l194.856,29.832c5.584,0.984,11.336-0.021,16.256-2.84l181.92-105.04
				c9.952-5.672,16.069-16.273,16-27.728C479.124,337.607,477.648,332.079,474.844,327.201z M455.124,357.073L455.124,357.073
				l-181.96,105.064c-1.704,0.946-3.683,1.272-5.6,0.92L72.516,433.193c-5.208-0.792-10.468-1.19-15.736-1.192H16.084v-96h24.392
				c14.813,0.114,29.558-2.011,43.736-6.304c4.046-1.181,7.972-2.737,11.728-4.648c17.388-8.816,36.651-13.293,56.144-13.048
				c19.826-0.241,39.407,4.391,57.024,13.488c11.095,6.083,22.99,10.575,35.336,13.344l75,13.296
				c8.537,2.282,13.608,11.052,11.326,19.589c-0.005,0.017-0.009,0.034-0.014,0.051c-0.356,1.324-0.894,2.592-1.6,3.768v0.064h-0.04
				c-3.74,6.098-10.979,9.097-17.936,7.432c-0.296-0.08-101.952-14.984-101.952-14.984c-4.351-0.768-8.501,2.136-9.269,6.487
				c-0.768,4.351,2.136,8.501,6.487,9.269c0.153,0.027,0.308,0.05,0.462,0.068c0,0,105.68,15.672,108.328,15.68h0.112
				c10.547-0.003,20.409-5.227,26.336-13.952l97.408-56.256c7.642-4.436,17.434-1.837,21.87,5.806
				c1.419,2.445,2.165,5.223,2.162,8.05C463.162,348.932,460.103,354.236,455.124,357.073z"/>
		</g>
	</g>
</g>
<g>
</g>
<g>
</g>
<g>
</g>
<g>
</g>
<g>
</g>
<g>
</g>
<g>
</g>
<g>
</g>
<g>
</g>
<g>
</g>
<g>
</g>
<g>
</g>
<g>
</g>
<g>
</g>
<g>
</g>
</svg>
