<svg id="Layer_1" enable-background="new 0 0 511.106 511.106" height="512" viewBox="0 0 511.106 511.106" width="512" xmlns="http://www.w3.org/2000/svg"><g><g><path d="m469.301 302.824h18.84v58.002h-18.84z" fill="#853c26"/></g><g><path d="m495.972 328.103h-34.503c-5.939 0-10.754 4.815-10.754 10.754v106.784c0 5.939 4.814 10.754 10.754 10.754h34.503c5.939 0 10.754-4.814 10.754-10.754v-106.784c0-5.939-4.815-10.754-10.754-10.754z" fill="#a85b38"/></g><g><g id="XMLID_372_"><g id="XMLID_374_"><path d="m182.139 511.106c-12.491 0-22.618-10.126-22.618-22.618v-180.787c0-12.491 10.127-22.618 22.618-22.618s22.618 10.126 22.618 22.618v180.787c0 12.491-10.127 22.618-22.618 22.618z" fill="#80391b"/></g><g id="XMLID_373_"><path d="m237.139 511.106c-12.491 0-22.618-10.126-22.618-22.618v-180.787c0-12.491 10.127-22.618 22.618-22.618s22.618 10.126 22.618 22.618v180.787c.001 12.491-10.126 22.618-22.618 22.618z" fill="#80391b"/></g></g><g fill="#80391b"><ellipse cx="209.639" cy="75.559" rx="39.063" ry="39.063" transform="matrix(.924 -.383 .383 .924 -12.957 85.977)"/><path d="m225.99 127.074h-32.74l-.262 4.937c-.502 9.461 7.034 17.408 16.509 17.408 9.176 0 16.596-7.472 16.532-16.647z"/><path d="m330.891 288.658c-.257-.703-19.585-51.093-34.554-93.4l-19.763 1.828-16.665 8.124s35.315 95.676 35.578 96.393c3.581 9.793 14.413 14.798 24.175 11.23 9.776-3.575 14.803-14.398 11.229-24.175z"/></g><path d="m257.648 198.935s.84 2.331 2.262 6.275l36.428-9.952s-6.759-19.048-10.465-29.835c-8.745-25.447-23.407-38.349-43.581-38.349h-16.302c.229 8.737-7.892 16.13-16.379 16.13-9.096 0-15.845-7.365-16.36-16.13h-16.264c-20.174 0-34.836 12.902-43.581 38.349-3.707 10.787-10.5 29.932-10.5 29.932l17.358 9.529 19.105.325c1.421-3.943 2.261-6.273 2.261-6.273l-26.771 140.356c-1.256 6.483 3.741 12.474 10.28 12.474h129.002c6.562 0 11.536-5.986 10.28-12.474z" fill="#e64937"/><path d="m122.905 195.355s-33.88 93.849-34.138 94.552c-3.574 9.777 1.453 20.6 11.229 24.174 2.137.781 4.321 1.151 6.471 1.151 7.688 0 14.91-4.741 17.704-12.381.223-.61 35.196-97.642 35.196-97.642z" fill="#80391b"/></g><g><g fill="#3c5a73"><path d="m45.42 495.881h-16.741c-2.91 0-5.268 2.359-5.268 5.268v4.688c0 2.909 2.359 5.268 5.268 5.268h16.741c2.91 0 5.268-2.359 5.268-5.268v-4.688c0-2.909-2.358-5.268-5.268-5.268z"/><path d="m112.028 495.881h-16.741c-2.91 0-5.268 2.359-5.268 5.268v4.688c0 2.909 2.359 5.268 5.268 5.268h16.741c2.91 0 5.268-2.359 5.268-5.268v-4.688c0-2.909-2.359-5.268-5.268-5.268z"/></g><g><path d="m85.839 320.277h-30.971c-6.497 0-11.782-5.286-11.782-11.782v-12.807c0-6.497 5.286-11.782 11.782-11.782h30.971c6.497 0 11.783 5.286 11.783 11.782v12.807c0 6.497-5.286 11.782-11.783 11.782zm-30.754-12h30.536v-12.372h-30.536z" fill="#a5c8cd"/></g><path d="m119.444 305.307h-98.181c-9.324 0-16.883 7.559-16.883 16.883v162.27c0 9.324 7.559 16.883 16.883 16.883h98.181c9.324 0 16.883-7.559 16.883-16.883v-162.27c0-9.324-7.559-16.883-16.883-16.883z" fill="#1c9585"/><g><path d="m70.353 483.042c-3.313 0-6-2.686-6-6v-145.269c0-3.314 2.687-6 6-6s6 2.686 6 6v145.269c0 3.314-2.686 6-6 6z" fill="#177d74"/></g><g><path d="m103.353 483.042c-3.313 0-6-2.686-6-6v-145.269c0-3.314 2.687-6 6-6s6 2.686 6 6v145.269c0 3.314-2.686 6-6 6z" fill="#177d74"/></g><g><path d="m38.353 483.042c-3.313 0-6-2.686-6-6v-145.269c0-3.314 2.687-6 6-6s6 2.686 6 6v145.269c0 3.314-2.686 6-6 6z" fill="#177d74"/></g></g><g><ellipse cx="396.813" cy="42.067" fill="#ffb69e" rx="42.067" ry="42.067" transform="matrix(.998 -.071 .071 .998 -1.984 28.236)"/><g><g id="XMLID_366_"><path d="m426.429 511.106c-13.452 0-24.357-10.905-24.357-24.357v-194.689c0-13.452 10.905-24.357 24.357-24.357s24.357 10.905 24.357 24.357v194.689c0 13.452-10.905 24.357-24.357 24.357z" fill="#414b82"/></g><g id="XMLID_365_"><path d="m367.198 511.106c-13.452 0-24.357-10.905-24.357-24.357v-194.689c0-13.452 10.905-24.357 24.357-24.357s24.357 10.905 24.357 24.357v194.689c0 13.452-10.905 24.357-24.357 24.357z" fill="#5f6e9b"/></g></g><g fill="#ffb69e"><path d="m416.525 97.543h-38.027l-.887 7.249c-1.453 11.872 7.81 22.34 19.772 22.34 11.692 0 20.87-10.023 19.842-21.67z"/><path d="m293.467 190.056v104.501c0 11.21 9.088 20.298 20.298 20.298s20.298-9.088 20.298-20.298v-104.501l-20.298-5.823z"/><path d="m479.782 180.364-20.298 9.692v104.501c0 11.21 9.088 20.298 20.298 20.298s20.298-9.088 20.298-20.298v-104.501z"/></g><path d="m500.079 145.336c-.132-26.353-22.016-47.793-48.782-47.793h-34.772c.414 10.24-9.093 18.947-19.017 18.947-10.637 0-18.516-8.674-19.01-18.947h-36.168c-26.81 0-48.73 21.44-48.862 47.793v.102 44.618h40.595v-44.544c.038-3.862 3.97-7.373 8.267-7.373h.492v153.921h107.952l-.189-153.922h.712c4.253 0 8.145 3.507 8.188 7.367v44.551h40.595v-44.618c0-.034 0-.068-.001-.102z" fill="#64afff"/></g></g></svg>