<?xml version="1.0" encoding="iso-8859-1"?>
<!-- Generator: Adobe Illustrator 19.0.0, SVG Export Plug-In . SVG Version: 6.00 Build 0)  -->
<svg version="1.1" id="Layer_1" xmlns="http://www.w3.org/2000/svg" xmlns:xlink="http://www.w3.org/1999/xlink" x="0px" y="0px"
	 viewBox="0 0 512.002 512.002" style="enable-background:new 0 0 512.002 512.002;" xml:space="preserve">
<circle style="fill:#324A5E;" cx="256.001" cy="256" r="256"/>
<path style="fill:#2B3B4E;" d="M503.438,321.839L277.538,95.939l-33.704,43.41l-36.126,43.765l48.035,48.035l-133.37,184.975
	l92.586,92.587c13.365,2.155,27.07,3.291,41.043,3.291C374.621,512,474.382,431.316,503.438,321.839z"/>
<g>
	<ellipse style="fill:#FED8B2;" cx="216.558" cy="167.857" rx="13.145" ry="20.687"/>
	<ellipse style="fill:#FED8B2;" cx="295.427" cy="167.857" rx="13.145" ry="20.687"/>
</g>
<ellipse style="fill:#E6F3FF;" cx="256.001" cy="102.348" rx="24.135" ry="14.222"/>
<path style="fill:#CFDBE6;" d="M280.136,102.357c0-7.854-10.805-14.222-24.135-14.222v28.444
	C269.33,116.579,280.136,110.211,280.136,102.357z"/>
<path style="fill:#FC6F58;" d="M341.332,327.327c0,0,57.177,17.239,56.889,56.889c-0.288,39.65-16.089,56.889-142.22,56.889
	c-126.133,0-141.934-17.239-142.222-56.889c-0.288-39.65,56.889-56.889,56.889-56.889H341.332z"/>
<path style="fill:#F1543F;" d="M398.221,384.215c0.288-39.65-56.889-56.889-56.889-56.889h-85.332v113.778
	C382.132,441.104,397.933,423.865,398.221,384.215z"/>
<path style="fill:#FED8B2;" d="M328.095,352.835l16.791-23.081c5.999-8.247,8.433-18.558,6.758-28.619l-7.704-46.227
	c-2.386-14.315-13.036-25.852-27.115-29.372l-32.77-8.192c-6.611-1.653-11.25-7.594-11.25-14.408v-22.007H239.2v22.007
	c0,6.815-4.639,12.755-11.25,14.408l-32.77,8.192c-14.079,3.52-24.729,15.057-27.115,29.372l-7.704,46.227
	c-1.676,10.059,0.759,20.37,6.756,28.617l16.789,23.081c5.565,7.651,14.455,12.178,23.916,12.178h96.359
	C313.64,365.011,322.53,360.486,328.095,352.835z"/>
<path style="fill:#EAC3A2;" d="M351.643,301.135l-7.704-46.227c-2.386-14.315-13.036-25.852-27.115-29.372l-32.77-8.192
	c-6.611-1.653-11.25-7.594-11.25-14.408v-22.007h-16.803v184.082h48.178c9.461,0,18.351-4.527,23.916-12.176l16.791-23.081
	C350.885,321.507,353.319,311.194,351.643,301.135z"/>
<path style="fill:#FD8469;" d="M351.643,301.135l-7.704-46.227c-2.386-14.315-13.036-25.852-27.115-29.372l-16.729-4.182
	c-31.763,45.347-84.351,63.488-138.166,70.37l-1.569,9.411c-1.676,10.059,0.759,20.37,6.756,28.617l16.789,23.081
	c5.565,7.651,14.455,12.178,23.916,12.178h96.359c9.461,0,18.351-4.525,23.916-12.176l16.791-23.081
	C350.885,321.507,353.319,311.194,351.643,301.135z"/>
<path style="fill:#FC6F58;" d="M351.643,301.135l-7.704-46.227c-2.386-14.315-13.036-25.852-27.115-29.372l-16.729-4.182
	c-12.054,17.208-27.112,30.492-44.092,40.736v102.921h48.178c9.461,0,18.351-4.525,23.916-12.176l16.791-23.081
	C350.885,321.507,353.319,311.194,351.643,301.135z"/>
<path style="fill:#F4E3C3;" d="M256.003,209.584L256.003,209.584c-24.743,0-44.801-20.058-44.801-44.801v-17.922
	c0-24.743,20.058-44.801,44.801-44.801l0,0c24.743,0,44.801,20.058,44.801,44.801v17.92
	C300.803,189.524,280.746,209.584,256.003,209.584z"/>
<path style="fill:#FED8B2;" d="M256.003,102.06L256.003,102.06L256.003,102.06v107.523l0,0l0,0
	c24.743,0,44.801-20.058,44.801-44.801v-17.922C300.803,122.118,280.746,102.06,256.003,102.06z"/>
<circle style="fill:#FD8469;" cx="256.001" cy="160.099" r="3.448"/>
<path style="fill:#FC6F58;" d="M259.449,160.108c0-1.903-1.543-3.448-3.448-3.448v6.896
	C257.906,163.556,259.449,162.011,259.449,160.108z"/>
<rect x="227.556" y="336.368" style="fill:#FED8B2;" width="56.889" height="28.444"/>
<rect x="256.001" y="336.368" style="fill:#EAC3A2;" width="28.444" height="28.444"/>
<rect x="230.142" y="165.271" style="fill:#59595B;" width="13.69" height="5.172"/>
<rect x="268.172" y="165.271" style="fill:#59595B;" width="13.69" height="5.172"/>
<rect x="250.829" y="189.406" style="fill:#808183;" width="10.343" height="5.172"/>
<rect x="256.001" y="189.406" style="fill:#59595B;" width="5.172" height="5.172"/>
<path style="fill:#CFDBE6;" d="M256.003,102.06L256.003,102.06c-24.743,0-44.801,20.058-44.801,44.801v17.92
	c0,6.53,1.408,12.726,3.92,18.322c-1.157-3.872-1.786-7.973-1.786-12.221c0-23.564,19.103-42.667,42.667-42.667
	s42.667,19.103,42.667,42.667c0,4.253-0.631,8.356-1.789,12.231c2.513-5.598,3.924-11.798,3.924-18.332v-17.92
	C300.803,122.118,280.746,102.06,256.003,102.06z"/>
<path style="fill:#B8C9D9;" d="M256.003,102.06L256.003,102.06L256.003,102.06v26.155c23.564,0,42.667,19.103,42.667,42.667
	c0,4.253-0.631,8.356-1.789,12.231c2.513-5.598,3.924-11.798,3.924-18.332v-17.92C300.803,122.118,280.746,102.06,256.003,102.06z"
	/>
<g>
</g>
<g>
</g>
<g>
</g>
<g>
</g>
<g>
</g>
<g>
</g>
<g>
</g>
<g>
</g>
<g>
</g>
<g>
</g>
<g>
</g>
<g>
</g>
<g>
</g>
<g>
</g>
<g>
</g>
</svg>
