<?xml version="1.0" encoding="iso-8859-1"?>
<!-- Generator: Adobe Illustrator 19.0.0, SVG Export Plug-In . SVG Version: 6.00 Build 0)  -->
<svg version="1.1" id="Capa_1" xmlns="http://www.w3.org/2000/svg" xmlns:xlink="http://www.w3.org/1999/xlink" x="0px" y="0px"
	 viewBox="0 0 512 512" style="enable-background:new 0 0 512 512;" xml:space="preserve">
<path style="fill:#73D4FF;" d="M512,256c0,34.21-6.708,66.853-18.892,96.684c-6.635,16.269-14.89,31.681-24.576,46.08
	c-9.707,14.409-20.835,27.784-33.196,39.915c-5.559,5.465-11.379,10.668-17.418,15.611c-7.805,6.384-16.008,12.319-24.545,17.763
	C353.687,497.351,306.563,512,256,512c-53.844,0-103.79-16.614-145.011-45.014c-7.879-5.413-15.444-11.274-22.643-17.512
	c-29.435-25.527-52.976-57.657-68.336-94.083c-9.122-21.629-15.36-44.784-18.213-68.974c-0.073-0.637-0.146-1.285-0.219-1.923
	c-0.658-5.862-1.108-11.786-1.348-17.763C0.073,263.168,0,259.594,0,256c0-35.976,7.419-70.217,20.814-101.282
	c6.572-15.224,14.566-29.696,23.834-43.217c9.415-13.74,20.135-26.52,31.984-38.149C122.828,27.982,186.138,0,256,0
	c36.373,0,70.98,7.586,102.306,21.264c11.682,5.099,22.904,11.034,33.593,17.753C464.039,84.281,512,164.54,512,256z"/>
<g>
	<path style="fill:#C2EEFF;" d="M271.711,96.668h-65.307c-4.904,0-8.88-3.976-8.88-8.88l0,0c0-4.904,3.976-8.88,8.88-8.88h65.307
		c4.904,0,8.88,3.976,8.88,8.88l0,0C280.591,92.692,276.616,96.668,271.711,96.668z"/>
	<path style="fill:#C2EEFF;" d="M216.331,369.808h-65.307c-4.904,0-8.88-3.976-8.88-8.88l0,0c0-4.904,3.976-8.88,8.88-8.88h65.307
		c4.904,0,8.88,3.976,8.88,8.88l0,0C225.211,365.832,221.236,369.808,216.331,369.808z"/>
	<path style="fill:#C2EEFF;" d="M417.917,454.29c-7.805,6.384-16.008,12.319-24.545,17.763h-35.788
		c-4.901,0-8.882-3.981-8.882-8.882c0-2.445,0.993-4.671,2.602-6.28c1.609-1.609,3.835-2.602,6.28-2.602H417.917z"/>
	<path style="fill:#C2EEFF;" d="M164.603,458.104c0,2.456-0.993,4.671-2.602,6.28c-1.599,1.609-3.824,2.602-6.269,2.602h-44.743
		c-7.879-5.413-15.444-11.274-22.643-17.512c0.669-0.167,1.369-0.251,2.079-0.251h65.306
		C160.632,449.223,164.603,453.204,164.603,458.104z"/>
	<path style="fill:#C2EEFF;" d="M455.082,161.943h-65.307c-4.904,0-8.88-3.976-8.88-8.88l0,0c0-4.904,3.976-8.88,8.88-8.88h65.307
		c4.904,0,8.88,3.976,8.88,8.88l0,0C463.961,157.968,459.986,161.943,455.082,161.943z"/>
	<path style="fill:#C2EEFF;" d="M51.722,275.613c0,2.445-0.993,4.671-2.602,6.28c-1.609,1.609-3.835,2.602-6.28,2.602H1.578
		c-0.658-5.862-1.108-11.786-1.348-17.763h42.611C47.741,266.731,51.722,270.702,51.722,275.613z"/>
	<path style="fill:#C2EEFF;" d="M391.899,39.016h-56.978c-4.901,0-8.882-3.971-8.882-8.882c0-2.456,0.993-4.671,2.602-6.269
		c1.609-1.609,3.824-2.602,6.28-2.602h23.385C369.988,26.363,381.21,32.298,391.899,39.016z"/>
</g>
<path style="fill:#FCE45B;" d="M493.108,352.684c-13.281,32.549-33.081,61.764-57.772,85.995
	c-86.089,0.627-173.223-23.928-249.866-75.86c-77.96-52.84-133.632-126.265-164.655-208.102C11.755,130.842,4.796,106.245,0,81.241
	c25.224-4.848,50.876-7.502,76.633-7.889c87.28-1.358,175.835,23.144,253.607,75.849
	C406.727,201.038,461.751,272.697,493.108,352.684z"/>
<path style="fill:#F2C629;" d="M468.532,398.764c-9.707,14.409-20.835,27.784-33.196,39.915
	c-86.089,0.627-173.223-23.928-249.866-75.86c-77.96-52.84-133.632-126.265-164.655-208.102C11.755,130.842,4.796,106.245,0,81.241
	l44.648,30.26L468.532,398.764z"/>
<path style="fill:#36539C;" d="M172.406,198.095L172.406,198.095c-23.987,35.394-14.738,83.531,20.656,107.518l42.725,28.954
	c35.394,23.987,83.531,14.738,107.518-20.656l0,0c23.987-35.394,14.738-83.531-20.656-107.518l-42.725-28.954
	C244.53,153.453,196.393,162.701,172.406,198.095z"/>
<path style="fill:#CF6238;" d="M328.704,46.686l-35.088,35.088c-10.125,10.125-25.537,11.734-37.345,4.827L52.005,290.879
	c6.896,11.807,5.287,27.22-4.827,37.345L20.01,355.391c-9.122-21.629-15.36-44.784-18.213-68.974l1.787-1.787
	c10.115-10.125,25.527-11.734,37.334-4.838L245.196,75.525c-6.907-11.807-5.298-27.22,4.827-37.345l35.088-35.088L328.704,46.686z"
	/>
<path style="fill:#E8509A;" d="M91.816,249.474l-9.493-9.493c-1.663-1.663-1.663-4.36,0-6.024l117.029-117.029
	c1.663-1.663,4.36-1.663,6.024,0l9.493,9.493c1.663,1.663,1.663,4.36,0,6.024L97.84,249.474
	C96.177,251.137,93.48,251.137,91.816,249.474z"/>
<g>
</g>
<g>
</g>
<g>
</g>
<g>
</g>
<g>
</g>
<g>
</g>
<g>
</g>
<g>
</g>
<g>
</g>
<g>
</g>
<g>
</g>
<g>
</g>
<g>
</g>
<g>
</g>
<g>
</g>
</svg>
