<svg id="Capa_1" enable-background="new 0 0 512 512" height="512" viewBox="0 0 512 512" width="512" xmlns="http://www.w3.org/2000/svg"><g><g><path d="m256 92.979c-4.267 0-7.726-3.459-7.726-7.726v-77.421c0-4.267 3.459-7.726 7.726-7.726s7.726 3.459 7.726 7.726v77.421c0 4.267-3.459 7.726-7.726 7.726z" fill="#918291"/></g><path d="m92.689 348.826h326.622v133.299h-326.622z" fill="#fe7d43"/><path d="m293.526 482.125h-75.052v-87.414c0-6.335 5.136-11.471 11.471-11.471h52.109c6.336 0 11.471 5.136 11.471 11.471v87.414z" fill="#fead8a"/><path d="m366.25 314.411h-220.5l23.148-154.167c6.48-43.103 43.515-74.987 87.102-74.987 43.599 0 80.612 31.884 87.102 74.987z" fill="#fe7d43"/><path d="m343.102 160.245c-3.245-21.551-14.124-40.301-29.638-53.662-9.83-8.46-21.526-14.75-34.318-18.232 1.159.901 2.301 1.822 3.413 2.779 15.515 13.361 26.393 32.111 29.638 53.662l17.42 116.05c3.015 20.067-12.525 38.117-32.817 38.117h-148.728l-2.322 15.453h220.5z" fill="#fd6930"/><path d="m169.967 154.56h172.065c-2.781-12.786-8.274-24.452-15.831-34.414h-140.403c-7.556 9.963-13.049 21.629-15.831 34.414z" fill="#fedf30"/><path d="m338.745 143.188c-2.043-5.625-4.707-12.799-12.548-23.042h-21.53c3.625 7.644 6.214 15.909 7.529 24.646l1.465 9.768h28.371c-.848-3.901-1.952-7.696-3.287-11.372z" fill="#fed402"/><path d="m304.398 314.411h-96.796l17.204-159.853h62.388z" fill="#fd6930"/><path d="m296.8 298.959h-87.536l-1.662 15.453h96.796l-1.718-15.976c-1.905.338-3.868.523-5.88.523z" fill="#fd5426"/><g><path d="m300.329 276.573c-.278.041-.556.051-.835.051h-86.988c-.278 0-.556-.01-.835-.051l1.659-15.401h85.34z" fill="#fedf30"/></g><g><path d="m292.87 207.798h-73.794l1.65-15.36c.371-.062 70.207-.072 70.547-.01z" fill="#fedf30"/></g><g><path d="m350.189 207.427c-.453.093-.917.134-1.401.134h-22.293c-4.265 0-7.726-3.461-7.726-7.726s3.462-7.726 7.726-7.726h21.387z" fill="#fed402"/></g><g><path d="m360.522 276.295c-.371.062-.752.093-1.143.093h-22.293c-4.265 0-7.726-3.461-7.726-7.726s3.462-7.726 7.726-7.726h21.139z" fill="#fed402"/></g><g><path d="m192.974 199.835c0 4.265-3.451 7.726-7.726 7.726h-22.293c-.391 0-.773-.031-1.143-.093l2.308-15.36h21.129c4.273 0 7.725 3.462 7.725 7.727z" fill="#fedf30"/></g><g><path d="m182.641 268.661c0 4.265-3.462 7.726-7.726 7.726h-22.293c-.391 0-.773-.031-1.144-.093l2.297-15.36h21.139c4.265.001 7.727 3.462 7.727 7.727z" fill="#fedf30"/></g><path d="m358.75 348.83h41.599v133.295h-41.599z" fill="#fd6930"/><path d="m343.298 348.83h41.599v133.295h-41.599z" fill="#fd6930"/><g><path d="m343.298 375.511h41.599v15.453h-41.599z" fill="#fedf30"/></g><g><path d="m343.298 409.93h41.599v15.453h-41.599z" fill="#fedf30"/></g><g><path d="m343.298 444.338h41.599v15.453h-41.599z" fill="#fedf30"/></g><path d="m142.556 348.83h41.599v133.295h-41.599z" fill="#fd6930"/><path d="m127.104 348.83h41.599v133.295h-41.599z" fill="#fd6930"/><g><path d="m127.104 375.511h41.599v15.453h-41.599z" fill="#fedf30"/></g><g><path d="m127.104 409.93h41.599v15.453h-41.599z" fill="#fedf30"/></g><g><path d="m127.104 444.338h41.599v15.453h-41.599z" fill="#fedf30"/></g><path d="m444.791 512h-377.582c-6.698 0-12.128-6.918-12.128-15.453v-10.302c0-2.276 1.845-4.121 4.121-4.121h393.597c2.276 0 4.121 1.845 4.121 4.121v10.302c-.001 8.535-5.431 15.453-12.129 15.453z" fill="#918291"/><path d="m248.274 56.236v-48.303c0-4.381 3.552-7.933 7.933-7.933h50.182c5.522 0 7.857 7.037 3.43 10.338z" fill="#fe646f"/><path d="m306.388 0h-15.453c-2.31 5.004-6.407 12.222-13.502 19.119-10.981 10.675-23.069 14.679-29.16 16.238v20.879l61.545-45.898c4.427-3.301 2.092-10.338-3.43-10.338z" fill="#fd4755"/><path d="m92.689 314.412h326.622c9.503 0 17.207 7.704 17.207 17.207 0 9.503-7.704 17.207-17.207 17.207h-326.622c-9.503 0-17.207-7.704-17.207-17.207 0-9.503 7.704-17.207 17.207-17.207z" fill="#fedf30"/><path d="m419.311 314.412h-13.787c.058.577.089 1.162.089 1.754 0 9.503-7.704 17.207-17.207 17.207h-312.835c.879 8.679 8.207 15.453 17.118 15.453h326.622c9.503 0 17.207-7.704 17.207-17.207s-7.704-17.207-17.207-17.207z" fill="#fed402"/></g></svg>